<svg xmlns="http://www.w3.org/2000/svg" xmlns:xlink="http://www.w3.org/1999/xlink" width="421.91" height="421.909" viewBox="0 0 421.91 421.909">
  <defs>
    <linearGradient id="linear-gradient" x1="0.759" y1="0.068" x2="0.363" y2="0.738" gradientUnits="objectBoundingBox">
      <stop offset="0" stop-color="#bbe2f6"/>
      <stop offset="1" stop-color="#d0f7e3" stop-opacity="0.188"/>
    </linearGradient>
  </defs>
  <path id="bg_img03" d="M152,304a153.227,153.227,0,0,1-30.64-3.087,151.162,151.162,0,0,1-54.356-22.866,152.383,152.383,0,0,1-55.064-66.872A151.26,151.26,0,0,1,3.087,182.64a153.6,153.6,0,0,1,0-61.28A151.16,151.16,0,0,1,25.953,67,152.381,152.381,0,0,1,92.826,11.941a151.26,151.26,0,0,1,28.535-8.854,153.6,153.6,0,0,1,61.28,0A151.159,151.159,0,0,1,237,25.953a152.379,152.379,0,0,1,55.063,66.872,151.266,151.266,0,0,1,8.854,28.535,153.6,153.6,0,0,1,0,61.28,151.163,151.163,0,0,1-22.866,54.355,152.381,152.381,0,0,1-66.871,55.063,151.258,151.258,0,0,1-28.535,8.854A153.222,153.222,0,0,1,152,304Zm.125-238.162a86.288,86.288,0,1,0,86.289,86.288A86.386,86.386,0,0,0,152.127,65.838Z" transform="matrix(0.545, -0.839, 0.839, 0.545, 0.692, 255.647)" stroke="rgba(0,0,0,0)" stroke-miterlimit="10" stroke-width="1" opacity="0.3" fill="url(#linear-gradient)"/>
</svg>
