<svg width="25" height="25" viewBox="0 0 25 25" fill="none" xmlns="http://www.w3.org/2000/svg">
<g clip-path="url(#clip0_172_11)">
<path d="M24.2637 20.7347C25.2402 21.7112 25.2402 23.2931 24.2637 24.2696C23.7794 24.7578 23.1388 25 22.4982 25C21.8577 25 21.2187 24.7559 20.7312 24.2676L12.499 16.0398L4.26764 24.2657C3.77939 24.7578 3.1396 25 2.4998 25C1.86001 25 1.221 24.7578 0.732365 24.2657C-0.244122 23.2892 -0.244122 21.7073 0.732365 20.7308L8.9661 12.4971L0.732365 4.26725C-0.244122 3.29076 -0.244122 1.70885 0.732365 0.732365C1.70885 -0.244122 3.29076 -0.244122 4.26724 0.732365L12.499 8.97L20.7328 0.736271C21.7092 -0.240215 23.2911 -0.240215 24.2676 0.736271C25.2441 1.71276 25.2441 3.29466 24.2676 4.27115L16.0339 12.5049L24.2637 20.7347Z" fill="#001B5C"/>
</g>
<defs>
<clipPath id="clip0_172_11">
<rect width="25" height="25" fill="white"/>
</clipPath>
</defs>
</svg>
