<svg width="60" height="50" viewBox="0 0 60 50" fill="none" xmlns="http://www.w3.org/2000/svg">
<path d="M36.4628 4.44706C36.7784 4.63026 37.0404 4.89315 37.2225 5.20941C37.4046 5.52567 37.5004 5.88422 37.5003 6.24915V14.5825C38.6728 14.5812 39.8323 14.828 40.9026 15.3066C41.973 15.7852 42.93 16.4849 43.7107 17.3596C45.0796 18.8863 45.8358 20.8652 45.8337 22.9158C45.8337 25.0491 45.0295 26.9991 43.7107 28.4721C42.9297 29.3465 41.9727 30.0459 40.9024 30.5245C39.8321 31.0031 38.6727 31.25 37.5003 31.2491V39.5825C37.5002 39.9473 37.4043 40.3057 37.2222 40.6218C37.04 40.938 36.7781 41.2007 36.4625 41.3838C36.147 41.5669 35.7889 41.6639 35.424 41.6651C35.0592 41.6664 34.7005 41.5718 34.3837 41.3908L20.8337 33.6491V43.7491C20.8337 44.3017 20.6142 44.8316 20.2235 45.2223C19.8328 45.613 19.3029 45.8325 18.7503 45.8325H10.417C9.86446 45.8325 9.33455 45.613 8.94385 45.2223C8.55315 44.8316 8.33366 44.3017 8.33366 43.7491V33.3325C7.22859 33.3325 6.16878 32.8935 5.38738 32.1121C4.60598 31.3307 4.16699 30.2709 4.16699 29.1658V16.6658C4.16699 15.5607 4.60598 14.5009 5.38738 13.7195C6.16878 12.9381 7.22859 12.4991 8.33366 12.4991H20.2795L34.3837 4.44081C34.7004 4.25969 35.0592 4.16493 35.4241 4.16603C35.789 4.16712 36.1472 4.26403 36.4628 4.44706ZM20.8337 29.1658C21.1962 29.166 21.5523 29.2608 21.867 29.4408L33.3337 35.9929V9.83873L21.867 16.3908C21.5523 16.5708 21.1962 16.6656 20.8337 16.6658H8.33366V29.1658H20.8337ZM12.5003 33.3325V41.6658H16.667V33.3325H12.5003ZM37.5003 27.0825C38.7337 27.0825 39.8399 26.5491 40.6066 25.6929C41.267 24.9554 41.667 23.9846 41.667 22.9158C41.667 21.8471 41.267 20.8762 40.6066 20.1387C40.2163 19.7009 39.7378 19.3506 39.2023 19.1111C38.6669 18.8716 38.0869 18.7482 37.5003 18.7491V27.0825Z" fill="#001B5C"/>
<line x1="49.3674" y1="13.6472" x2="55.1015" y2="9.6322" stroke="#001B5C" stroke-width="3" stroke-linecap="round"/>
<line x1="48.0881" y1="30.6316" x2="53.8222" y2="34.6467" stroke="#001B5C" stroke-width="3" stroke-linecap="round"/>
<line x1="51.5" y1="22.5" x2="58.5" y2="22.5" stroke="#001B5C" stroke-width="3" stroke-linecap="round"/>
</svg>
