<svg width="26" height="26" viewBox="0 0 26 26" fill="none" xmlns="http://www.w3.org/2000/svg">
<path d="M24.4976 6.81759C24.368 6.26503 24.1041 5.75875 23.7325 5.34989C23.3609 4.94103 22.8949 4.64407 22.3813 4.489C20.5051 4 13 4 13 4C13 4 5.49494 4 3.61867 4.53558C3.10515 4.69064 2.63906 4.9876 2.26748 5.39646C1.8959 5.80532 1.632 6.3116 1.50242 6.86417C1.15903 8.89651 0.991063 10.9582 1.00062 13.0233C0.988383 15.1039 1.15636 17.1813 1.50242 19.229C1.64527 19.7644 1.91509 20.2514 2.2858 20.643C2.65652 21.0346 3.11559 21.3175 3.61867 21.4644C5.49494 22 13 22 13 22C13 22 20.5051 22 22.3813 21.4644C22.8949 21.3094 23.3609 21.0124 23.7325 20.6035C24.1041 20.1947 24.368 19.6884 24.4976 19.1358C24.8383 17.1188 25.0063 15.0728 24.9994 13.0233C25.0116 10.9426 24.8436 8.86524 24.4976 6.81759V6.81759Z" fill="#001B5C"/>
<path d="M10 16.085L16.2292 12.5425L10 9V16.085Z" fill="white" stroke="white" stroke-width="0.5" stroke-linecap="round" stroke-linejoin="round"/>
</svg>
