<svg width="26" height="26" viewBox="0 0 26 26" fill="none" xmlns="http://www.w3.org/2000/svg">
<path d="M18.417 2.16602H7.58366C4.59212 2.16602 2.16699 4.59114 2.16699 7.58268V18.416C2.16699 21.4076 4.59212 23.8327 7.58366 23.8327H18.417C21.4085 23.8327 23.8337 21.4076 23.8337 18.416V7.58268C23.8337 4.59114 21.4085 2.16602 18.417 2.16602Z" fill="#001B5C" stroke="#001B5C" stroke-width="2" stroke-linecap="round" stroke-linejoin="round"/>
<path d="M17.3337 12.3168C17.4674 13.2184 17.3134 14.1393 16.8936 14.9483C16.4738 15.7573 15.8096 16.4134 14.9954 16.8232C14.1813 17.2329 13.2587 17.3756 12.3588 17.2308C11.4589 17.086 10.6276 16.6611 9.98308 16.0166C9.33858 15.3721 8.91371 14.5408 8.76891 13.6409C8.6241 12.741 8.76674 11.8184 9.17652 11.0043C9.5863 10.1901 10.2424 9.5259 11.0514 9.10611C11.8604 8.68632 12.7812 8.53232 13.6828 8.66602C14.6025 8.80239 15.4539 9.23094 16.1113 9.88835C16.7687 10.5458 17.1973 11.3972 17.3337 12.3168Z" stroke="white" stroke-width="2" stroke-linecap="round" stroke-linejoin="round"/>
<path d="M18.958 7.04102H18.968" stroke="white" stroke-width="2" stroke-linecap="round" stroke-linejoin="round"/>
</svg>
