<svg width="26" height="24" viewBox="0 0 26 24" fill="none" xmlns="http://www.w3.org/2000/svg">
<g clip-path="url(#clip0_172_13)">
<path d="M25.9921 11.9765C25.9921 12.8204 25.3149 13.4812 24.5475 13.4812H23.103L23.1346 20.9859C23.1346 21.1172 23.1256 21.239 23.1121 21.3657V22.1249C23.1121 23.161 22.3041 24 21.3064 24H20.5842C20.5345 24 20.4849 23.9578 20.4352 23.9953C20.372 23.9578 20.3088 24 20.2456 24H17.6952C16.6976 24 15.8896 23.161 15.8896 22.1249V18C15.8896 17.1704 15.244 16.5 14.445 16.5H11.556C10.757 16.5 10.1115 17.1704 10.1115 18V22.1249C10.1115 23.161 9.30351 24 8.3059 24H5.78253C5.71482 24 5.64711 23.9953 5.5794 23.9906C5.52523 23.9953 5.47106 24 5.41689 24H4.69464C3.69748 24 2.88901 23.161 2.88901 22.1249V16.8749C2.88901 16.8328 2.89036 16.7859 2.89307 16.7437V13.4812H1.44676C0.632873 13.4812 0 12.8204 0 11.9765C0 11.5547 0.135603 11.1796 0.451859 10.8516L12.0255 0.375749C12.3415 0.0469688 12.7026 0 13.0186 0C13.3346 0 13.6957 0.0939375 13.9711 0.328781L25.4955 10.8516C25.8566 11.1796 26.0417 11.5547 25.9921 11.9765Z" fill="#001B5C"/>
</g>
<defs>
<clipPath id="clip0_172_13">
<rect width="26" height="24" fill="white"/>
</clipPath>
</defs>
</svg>
