<svg width="26" height="26" viewBox="0 0 26 26" fill="none" xmlns="http://www.w3.org/2000/svg">
<path d="M0 13C0 5.81953 5.81953 0 13 0C20.1805 0 26 5.81953 26 13C26 20.1805 20.1805 26 13 26C5.81953 26 0 20.1805 0 13ZM8.3332 16.5293C8.03867 16.1891 7.52578 16.1535 7.18555 16.448C6.84531 16.7426 6.80977 17.2555 7.1043 17.5957C8.23164 18.8957 10.202 20.3125 12.9543 20.3125C15.798 20.3125 17.7633 18.8957 18.8957 17.5957C19.1902 17.2555 19.1547 16.7426 18.8145 16.448C18.4742 16.1535 17.9613 16.1891 17.6668 16.5293C16.7527 17.5805 15.2039 18.6875 12.9543 18.6875C10.7961 18.6875 9.24219 17.5805 8.3332 16.5293ZM8.95781 8.9375C8.05898 8.9375 7.33281 9.66367 7.33281 10.5625C7.33281 11.4613 8.05898 12.1875 8.95781 12.1875C9.85156 12.1875 10.5828 11.4613 10.5828 10.5625C10.5828 9.66367 9.85156 8.9375 8.95781 8.9375ZM17.0828 12.1875C17.9766 12.1875 18.7078 11.4613 18.7078 10.5625C18.7078 9.66367 17.9766 8.9375 17.0828 8.9375C16.184 8.9375 15.4578 9.66367 15.4578 10.5625C15.4578 11.4613 16.184 12.1875 17.0828 12.1875Z" fill="#32A1FF"/>
</svg>
