<svg width="7" height="6" viewBox="0 0 7 6" fill="none" xmlns="http://www.w3.org/2000/svg">
<path d="M2.84277 0.358835C2.90747 0.250173 3.0026 0.159546 3.11821 0.0964232C3.23383 0.0333009 3.36568 -2.68118e-08 3.5 -2.68118e-08C3.63432 -2.68118e-08 3.76617 0.0333009 3.88179 0.0964232C3.9974 0.159546 4.09252 0.250173 4.15723 0.358835L6.90713 4.97396C6.96997 5.0794 7.00194 5.19814 6.99991 5.31848C6.99787 5.43881 6.96189 5.55657 6.89552 5.66015C6.82915 5.76374 6.73467 5.84956 6.62141 5.90915C6.50815 5.96875 6.38002 6.00006 6.24965 6L0.749845 6C0.619522 5.99998 0.491454 5.96861 0.378263 5.90898C0.265073 5.84935 0.170668 5.76352 0.104353 5.65996C0.0380383 5.55639 0.00210328 5.43866 8.93007e-05 5.31836C-0.00192468 5.19807 0.0300522 5.07937 0.0928682 4.97396L2.84277 0.358835Z" fill="#707070"/>
</svg>
