<svg width="26" height="26" viewBox="0 0 26 26" fill="none" xmlns="http://www.w3.org/2000/svg">
<path d="M18.417 2.16699H7.58366C4.59212 2.16699 2.16699 4.59212 2.16699 7.58366V18.417C2.16699 21.4085 4.59212 23.8337 7.58366 23.8337H18.417C21.4085 23.8337 23.8337 21.4085 23.8337 18.417V7.58366C23.8337 4.59212 21.4085 2.16699 18.417 2.16699Z" stroke="white" stroke-width="2" stroke-linecap="round" stroke-linejoin="round"/>
<path d="M17.3337 12.3178C17.4674 13.2194 17.3134 14.1402 16.8936 14.9493C16.4738 15.7583 15.8096 16.4144 14.9954 16.8241C14.1813 17.2339 13.2587 17.3766 12.3588 17.2318C11.4589 17.0869 10.6276 16.6621 9.98308 16.0176C9.33858 15.3731 8.91371 14.5418 8.76891 13.6419C8.6241 12.742 8.76674 11.8194 9.17652 11.0052C9.5863 10.1911 10.2424 9.52688 11.0514 9.10709C11.8604 8.6873 12.7812 8.5333 13.6828 8.66699C14.6025 8.80337 15.4539 9.23191 16.1113 9.88933C16.7687 10.5467 17.1973 11.3982 17.3337 12.3178Z" stroke="white" stroke-width="2" stroke-linecap="round" stroke-linejoin="round"/>
<path d="M18.958 7.04199H18.968" stroke="white" stroke-width="2" stroke-linecap="round" stroke-linejoin="round"/>
</svg>
