<svg width="21" height="21" viewBox="0 0 21 21" fill="none" xmlns="http://www.w3.org/2000/svg">
<g clip-path="url(#clip0_363_5)">
<path d="M20.9672 15.8728L20.0136 20.0072C19.8796 20.5916 19.3659 21.0006 18.7642 21.0006C8.41641 20.9998 0 12.5833 0 2.2351C0 1.63382 0.408885 1.11948 0.993398 0.986179L5.12777 0.0325657C5.72988 -0.106969 6.34512 0.20557 6.59531 0.775769L8.50336 5.22596C8.7264 5.75014 8.57596 6.36087 8.13504 6.72098L5.92676 8.49409C7.32047 11.3332 9.62883 13.6416 12.4688 15.0361L14.2767 12.8294C14.6331 12.3873 15.2484 12.2343 15.7726 12.4613L20.2228 14.369C20.758 14.6505 21.1066 15.274 20.9672 15.8728Z" fill="#001B5C"/>
</g>
<defs>
<clipPath id="clip0_363_5">
<rect width="21" height="21" fill="white"/>
</clipPath>
</defs>
</svg>
