<svg width="19" height="25" viewBox="0 0 19 25" fill="none" xmlns="http://www.w3.org/2000/svg">
<path d="M7.01312 20.5281C4.83793 17.8881 0 11.4895 0 7.89543C0 3.53485 3.58198 0 8.0007 0C12.4178 0 16.0014 3.53485 16.0014 7.89543C16.0014 11.4895 11.126 17.8881 8.98829 20.5281C8.47575 21.1573 7.52566 21.1573 7.01312 20.5281ZM8.0007 10.5272C9.47167 10.5272 10.6676 9.34704 10.6676 7.89543C10.6676 6.44382 9.47167 5.26362 8.0007 5.26362C6.52974 5.26362 5.3338 6.44382 5.3338 7.89543C5.3338 9.34704 6.52974 10.5272 8.0007 10.5272Z" fill="#001B5C"/>
</svg>
