<svg width="26" height="26" viewBox="0 0 26 26" fill="none" xmlns="http://www.w3.org/2000/svg">
<path d="M24.4976 5.97412C24.368 5.39087 24.1041 4.85646 23.7325 4.42488C23.3609 3.99331 22.8949 3.67985 22.3813 3.51617C20.5051 3 13 3 13 3C13 3 5.49494 3 3.61867 3.56533C3.10515 3.72901 2.63906 4.04247 2.26748 4.47404C1.8959 4.90562 1.632 5.44002 1.50242 6.02329C1.15903 8.16854 0.991066 10.3448 1.00062 12.5246C0.988386 14.7208 1.15636 16.9136 1.50242 19.0751C1.64527 19.6402 1.91509 20.1543 2.2858 20.5676C2.65652 20.981 3.11559 21.2796 3.61867 21.4346C5.49494 22 13 22 13 22C13 22 20.5051 22 22.3813 21.4346C22.8949 21.271 23.3609 20.9575 23.7325 20.5259C24.1041 20.0944 24.368 19.56 24.4976 18.9767C24.8383 16.8476 25.0063 14.688 24.9994 12.5246C25.0116 10.3283 24.8436 8.13553 24.4976 5.97412Z" fill="#001B5C"/>
<path d="M11 16L17 12.5L11 9V16Z" fill="white" stroke="white" stroke-width="0.5" stroke-linecap="round" stroke-linejoin="round"/>
</svg>
