<svg width="44" height="36" viewBox="0 0 44 36" fill="none" xmlns="http://www.w3.org/2000/svg">
<path d="M26.253 3.20235C26.4802 3.33426 26.6689 3.52353 26.8 3.75124C26.9311 3.97895 27 4.2371 27 4.49985V10.4999C27.8442 10.4989 28.679 10.6766 29.4497 11.0212C30.2203 11.3658 30.9093 11.8696 31.4715 12.4994C32.4571 13.5986 33.0015 15.0234 33 16.4999C33 18.0359 32.421 19.4399 31.4715 20.5004C30.9092 21.1299 30.2201 21.6335 29.4495 21.9781C28.6789 22.3227 27.8441 22.5005 27 22.4999V28.4999C26.9999 28.7625 26.9309 29.0206 26.7997 29.2482C26.6686 29.4758 26.48 29.665 26.2528 29.7968C26.0256 29.9286 25.7677 29.9985 25.5051 29.9994C25.2424 30.0002 24.9841 29.9321 24.756 29.8019L15 24.2279V31.4999C15 31.8977 14.842 32.2792 14.5607 32.5605C14.2794 32.8418 13.8978 32.9999 13.5 32.9999H7.5C7.10218 32.9999 6.72065 32.8418 6.43934 32.5605C6.15804 32.2792 6 31.8977 6 31.4999V23.9999C5.20435 23.9999 4.44129 23.6838 3.87868 23.1212C3.31607 22.5586 3 21.7955 3 20.9999V11.9999C3 11.2042 3.31607 10.4411 3.87868 9.87853C4.44129 9.31593 5.20435 8.99986 6 8.99986H14.601L24.756 3.19785C24.9841 3.06744 25.2424 2.99922 25.5051 3.00001C25.7678 3.0008 26.0257 3.07057 26.253 3.20235ZM15 20.9999C15.261 21 15.5175 21.0683 15.744 21.1979L24 25.9154V7.08435L15.744 11.8019C15.5175 11.9315 15.261 11.9997 15 11.9999H6V20.9999H15ZM9 23.9999V29.9999H12V23.9999H9ZM27 19.4999C27.888 19.4999 28.6845 19.1159 29.2365 18.4994C29.712 17.9684 30 17.2694 30 16.4999C30 15.7304 29.712 15.0314 29.2365 14.5004C28.9555 14.1851 28.6109 13.9329 28.2255 13.7605C27.84 13.588 27.4223 13.4992 27 13.4999V19.4999Z" fill="white"/>
<line x1="35.6477" y1="9.24099" x2="39.0881" y2="6.83196" stroke="white" stroke-width="3" stroke-linecap="round"/>
<line x1="35.2082" y1="21.9519" x2="38.6487" y2="24.361" stroke="white" stroke-width="3" stroke-linecap="round"/>
<line x1="37.5" y1="15.7793" x2="41.7" y2="15.7793" stroke="white" stroke-width="3" stroke-linecap="round"/>
</svg>
