<svg width="26" height="26" viewBox="0 0 26 26" fill="none" xmlns="http://www.w3.org/2000/svg">
<path d="M13 3L13 4H12.9998L12.9989 4L12.9952 4L12.9796 4.00002L12.9177 4.00013C12.8632 4.00027 12.7826 4.00054 12.6791 4.00109C12.4722 4.00218 12.174 4.00437 11.8101 4.00876C11.0818 4.01754 10.0925 4.03508 9.0464 4.07011C7.99847 4.10519 6.90247 4.15752 5.95796 4.23514C4.98957 4.31472 4.27191 4.41458 3.91482 4.52052C3.59043 4.62552 3.28135 4.82912 3.0253 5.1265L13 3ZM13 3L13 4H13.0002L13.0011 4L13.0049 4L13.0205 4.00002L13.0825 4.00012C13.1371 4.00025 13.2178 4.0005 13.3213 4.001C13.5284 4.002 13.8268 4.004 14.191 4.008C14.9197 4.01602 15.9096 4.03205 16.9565 4.06405C18.0051 4.09611 19.1027 4.14394 20.0491 4.21496C21.007 4.28682 21.7273 4.37725 22.0964 4.47505C22.4167 4.58107 22.7215 4.78336 22.9747 5.07736C23.2279 5.37142 23.4176 5.74444 23.5152 6.16385C23.8491 8.26074 24.0113 10.3881 23.9994 12.519H23.9994L23.9994 12.5278C24.0061 14.6266 23.844 16.7216 23.5152 18.787C23.4176 19.2065 23.2279 19.5794 22.9748 19.8733L22.9747 19.8734C22.7185 20.171 22.4095 20.3745 22.0852 20.4794C21.7282 20.5854 21.0105 20.6852 20.042 20.7648C19.0975 20.8425 18.0015 20.8948 16.9536 20.9299C15.9075 20.9649 14.9182 20.9825 14.1899 20.9912C13.826 20.9956 13.5278 20.9978 13.3209 20.9989C13.2174 20.9995 13.1368 20.9997 13.0823 20.9999L13.0204 21L13.0049 21L13.0011 21H13.0002H13H12.9998H12.9989L12.9952 21L12.9796 21L12.9177 20.9999C12.8632 20.9997 12.7826 20.9995 12.6791 20.9989C12.4722 20.9978 12.174 20.9956 11.8101 20.9912C11.0818 20.9825 10.0925 20.9649 9.0464 20.9299C7.99847 20.8948 6.90248 20.8425 5.95797 20.7648C4.98537 20.6849 4.26569 20.5845 3.91022 20.478C3.59118 20.3791 3.28604 20.1852 3.0303 19.9L3.03022 19.8999C2.78138 19.6225 2.58979 19.2697 2.48235 18.87C2.15005 16.778 1.98877 14.6558 2.00061 12.5302H2.00066M13 3L2.00066 12.5302M2.00066 12.5302L2.00061 12.5202M2.00066 12.5302L2.00061 12.5202M2.00061 12.5202C1.99134 10.4054 2.15344 8.29411 2.4848 6.21301M2.00061 12.5202L2.4848 6.21301M2.4848 6.21301C2.5824 5.7936 2.77211 5.42059 3.02529 5.12651L2.4848 6.21301Z" stroke="white" stroke-width="2"/>
<path d="M11 16L17 12.5L11 9V16Z" fill="white" stroke="white" stroke-width="0.5" stroke-linecap="round" stroke-linejoin="round"/>
</svg>
