<svg width="26" height="26" viewBox="0 0 26 26" fill="none" xmlns="http://www.w3.org/2000/svg">
<path d="M18.5 2H7.49999C4.46243 2 2 4.46243 2 7.49999V18.5C2 21.5376 4.46243 24 7.49999 24H18.5C21.5375 24 24 21.5376 24 18.5V7.49999C24 4.46243 21.5375 2 18.5 2Z" stroke="white" stroke-width="2" stroke-linecap="round" stroke-linejoin="round"/>
<path d="M16.9567 12.4132C17.0801 13.2455 16.938 14.0955 16.5505 14.8423C16.163 15.5891 15.5499 16.1947 14.7983 16.573C14.0468 16.9511 13.1952 17.0829 12.3645 16.9492C11.5339 16.8155 10.7665 16.4233 10.1716 15.8284C9.57665 15.2335 9.18447 14.4661 9.05081 13.6355C8.91714 12.8048 9.04881 11.9532 9.42706 11.2017C9.80532 10.4501 10.4109 9.83701 11.1577 9.44951C11.9045 9.06201 12.7544 8.91986 13.5867 9.04327C14.4356 9.16915 15.2215 9.56473 15.8284 10.1716C16.4352 10.7784 16.8308 11.5644 16.9567 12.4132Z" stroke="white" stroke-width="2" stroke-linecap="round" stroke-linejoin="round"/>
<path d="M18.791 6.875H18.801" stroke="white" stroke-width="2" stroke-linecap="round" stroke-linejoin="round"/>
</svg>
